<?xml version="1.0" encoding="utf-8"?>
<!-- Generator: Adobe Illustrator 16.0.0, SVG Export Plug-In . SVG Version: 6.00 Build 0)  -->
<!DOCTYPE svg PUBLIC "-//W3C//DTD SVG 1.1//EN" "http://www.w3.org/Graphics/SVG/1.1/DTD/svg11.dtd">
<svg version="1.1" id="Layer_1" xmlns="http://www.w3.org/2000/svg" xmlns:xlink="http://www.w3.org/1999/xlink" x="0px" y="0px"
	 width="1300px" height="700px" viewBox="0 0 1300 700" enable-background="new 0 0 1300 700" xml:space="preserve">
<g>
	<g>
		<rect y="-0.014" fill="#27AAE1" width="1300" height="700"/>
	</g>
</g>
<g opacity="0.3">
	<g>
		<circle fill="#FFFFFF" cx="31" cy="32.314" r="11"/>
		<circle fill="#FFFFFF" cx="31" cy="138.148" r="11"/>
		<circle fill="#FFFFFF" cx="31" cy="243.981" r="11"/>
		<circle fill="#FFFFFF" cx="31" cy="349.814" r="11"/>
		<circle fill="#FFFFFF" cx="31" cy="455.647" r="11"/>
		<circle fill="#FFFFFF" cx="31" cy="561.481" r="11"/>
		<circle fill="#FFFFFF" cx="31" cy="667.314" r="11"/>
	</g>
	<g>
		<circle fill="#FFFFFF" cx="108.438" cy="89.314" r="11"/>
		<circle fill="#FFFFFF" cx="108.438" cy="195.148" r="11"/>
		<circle fill="#FFFFFF" cx="108.438" cy="300.981" r="11"/>
		<circle fill="#FFFFFF" cx="108.438" cy="406.814" r="11"/>
		<circle fill="#FFFFFF" cx="108.438" cy="512.647" r="11"/>
		<circle fill="#FFFFFF" cx="108.438" cy="618.481" r="11"/>
	</g>
	<g>
		<circle fill="#FFFFFF" cx="185.875" cy="32.314" r="11"/>
		<circle fill="#FFFFFF" cx="185.875" cy="138.148" r="11"/>
		<circle fill="#FFFFFF" cx="185.875" cy="243.981" r="11"/>
		<circle fill="#FFFFFF" cx="185.875" cy="349.814" r="11"/>
		<circle fill="#FFFFFF" cx="185.875" cy="455.647" r="11"/>
		<circle fill="#FFFFFF" cx="185.875" cy="561.481" r="11"/>
		<circle fill="#FFFFFF" cx="185.875" cy="667.314" r="11"/>
	</g>
	<g>
		<circle fill="#FFFFFF" cx="263.313" cy="89.314" r="11"/>
		<circle fill="#FFFFFF" cx="263.313" cy="195.148" r="11"/>
		<circle fill="#FFFFFF" cx="263.313" cy="300.981" r="11"/>
		<circle fill="#FFFFFF" cx="263.313" cy="406.814" r="11"/>
		<circle fill="#FFFFFF" cx="263.313" cy="512.647" r="11"/>
		<circle fill="#FFFFFF" cx="263.313" cy="618.481" r="11"/>
	</g>
	<g>
		<circle fill="#FFFFFF" cx="340.75" cy="32.314" r="11"/>
		<circle fill="#FFFFFF" cx="340.75" cy="138.148" r="11"/>
		<circle fill="#FFFFFF" cx="340.75" cy="243.981" r="11"/>
		<circle fill="#FFFFFF" cx="340.75" cy="349.814" r="11"/>
		<circle fill="#FFFFFF" cx="340.75" cy="455.647" r="11"/>
		<circle fill="#FFFFFF" cx="340.75" cy="561.481" r="11"/>
		<circle fill="#FFFFFF" cx="340.75" cy="667.314" r="11"/>
	</g>
	<g>
		<circle fill="#FFFFFF" cx="418.188" cy="89.314" r="11"/>
		<circle fill="#FFFFFF" cx="418.188" cy="195.148" r="11"/>
		<circle fill="#FFFFFF" cx="418.188" cy="300.981" r="11"/>
		<circle fill="#FFFFFF" cx="418.188" cy="406.813" r="11"/>
		<circle fill="#FFFFFF" cx="418.188" cy="512.647" r="11"/>
		<circle fill="#FFFFFF" cx="418.188" cy="618.481" r="11"/>
	</g>
	<g>
		<circle fill="#FFFFFF" cx="495.625" cy="32.314" r="11"/>
		<circle fill="#FFFFFF" cx="495.625" cy="138.148" r="11"/>
		<circle fill="#FFFFFF" cx="495.625" cy="243.981" r="11"/>
		<circle fill="#FFFFFF" cx="495.625" cy="349.813" r="11"/>
		<circle fill="#FFFFFF" cx="495.625" cy="455.647" r="11"/>
		<circle fill="#FFFFFF" cx="495.625" cy="561.481" r="11"/>
		<circle fill="#FFFFFF" cx="495.625" cy="667.314" r="11"/>
	</g>
	<g>
		<circle fill="#FFFFFF" cx="573.063" cy="89.314" r="11"/>
		<circle fill="#FFFFFF" cx="573.063" cy="195.148" r="11"/>
		<circle fill="#FFFFFF" cx="573.063" cy="300.981" r="11"/>
		<circle fill="#FFFFFF" cx="573.063" cy="406.813" r="11"/>
		<circle fill="#FFFFFF" cx="573.063" cy="512.647" r="11"/>
		<circle fill="#FFFFFF" cx="573.063" cy="618.481" r="11"/>
	</g>
	<g>
		<circle fill="#FFFFFF" cx="650.5" cy="32.314" r="11"/>
		<circle fill="#FFFFFF" cx="650.5" cy="138.148" r="11"/>
		<circle fill="#FFFFFF" cx="650.5" cy="243.981" r="11"/>
		<circle fill="#FFFFFF" cx="650.5" cy="349.814" r="11"/>
		<circle fill="#FFFFFF" cx="650.5" cy="455.647" r="11"/>
		<circle fill="#FFFFFF" cx="650.5" cy="561.481" r="11"/>
		<circle fill="#FFFFFF" cx="650.5" cy="667.314" r="11"/>
	</g>
	<g>
		<circle fill="#FFFFFF" cx="727.938" cy="89.314" r="11"/>
		<circle fill="#FFFFFF" cx="727.938" cy="195.148" r="11"/>
		<circle fill="#FFFFFF" cx="727.938" cy="300.981" r="11"/>
		<circle fill="#FFFFFF" cx="727.938" cy="406.813" r="11"/>
		<circle fill="#FFFFFF" cx="727.938" cy="512.647" r="11"/>
		<circle fill="#FFFFFF" cx="727.938" cy="618.481" r="11"/>
	</g>
	<g>
		<circle fill="#FFFFFF" cx="805.375" cy="32.314" r="11"/>
		<circle fill="#FFFFFF" cx="805.375" cy="138.148" r="11"/>
		<circle fill="#FFFFFF" cx="805.375" cy="243.981" r="11"/>
		<circle fill="#FFFFFF" cx="805.375" cy="349.813" r="11"/>
		<circle fill="#FFFFFF" cx="805.375" cy="455.647" r="11"/>
		<circle fill="#FFFFFF" cx="805.375" cy="561.481" r="11"/>
		<circle fill="#FFFFFF" cx="805.375" cy="667.314" r="11"/>
	</g>
	<g>
		<circle fill="#FFFFFF" cx="882.813" cy="89.314" r="11"/>
		<circle fill="#FFFFFF" cx="882.813" cy="195.148" r="11"/>
		<circle fill="#FFFFFF" cx="882.813" cy="300.981" r="11"/>
		<circle fill="#FFFFFF" cx="882.813" cy="406.813" r="11"/>
		<circle fill="#FFFFFF" cx="882.813" cy="512.647" r="11"/>
		<circle fill="#FFFFFF" cx="882.813" cy="618.481" r="11"/>
	</g>
	<g>
		<circle fill="#FFFFFF" cx="960.25" cy="32.314" r="11"/>
		<circle fill="#FFFFFF" cx="960.25" cy="138.148" r="11"/>
		<circle fill="#FFFFFF" cx="960.25" cy="243.981" r="11"/>
		<circle fill="#FFFFFF" cx="960.25" cy="349.814" r="11"/>
		<circle fill="#FFFFFF" cx="960.25" cy="455.647" r="11"/>
		<circle fill="#FFFFFF" cx="960.25" cy="561.481" r="11"/>
		<circle fill="#FFFFFF" cx="960.25" cy="667.314" r="11"/>
	</g>
	<g>
		<circle fill="#FFFFFF" cx="1037.688" cy="89.314" r="11"/>
		<circle fill="#FFFFFF" cx="1037.688" cy="195.148" r="11"/>
		<circle fill="#FFFFFF" cx="1037.688" cy="300.981" r="11"/>
		<circle fill="#FFFFFF" cx="1037.688" cy="406.814" r="11"/>
		<circle fill="#FFFFFF" cx="1037.688" cy="512.647" r="11"/>
		<circle fill="#FFFFFF" cx="1037.688" cy="618.481" r="11"/>
	</g>
	<g>
		<circle fill="#FFFFFF" cx="1115.125" cy="32.314" r="11"/>
		<circle fill="#FFFFFF" cx="1115.125" cy="138.148" r="11"/>
		<circle fill="#FFFFFF" cx="1115.125" cy="243.981" r="11"/>
		<circle fill="#FFFFFF" cx="1115.125" cy="349.814" r="11"/>
		<circle fill="#FFFFFF" cx="1115.125" cy="455.647" r="11"/>
		<circle fill="#FFFFFF" cx="1115.125" cy="561.481" r="11"/>
		<circle fill="#FFFFFF" cx="1115.125" cy="667.314" r="11"/>
	</g>
	<g>
		<circle fill="#FFFFFF" cx="1192.563" cy="89.314" r="11"/>
		<circle fill="#FFFFFF" cx="1192.563" cy="195.148" r="11"/>
		<circle fill="#FFFFFF" cx="1192.563" cy="300.981" r="11"/>
		<circle fill="#FFFFFF" cx="1192.563" cy="406.814" r="11"/>
		<circle fill="#FFFFFF" cx="1192.563" cy="512.647" r="11"/>
		<circle fill="#FFFFFF" cx="1192.563" cy="618.481" r="11"/>
	</g>
	<g>
		<circle fill="#FFFFFF" cx="1270" cy="32.314" r="11"/>
		<circle fill="#FFFFFF" cx="1270" cy="138.148" r="11"/>
		<circle fill="#FFFFFF" cx="1270" cy="243.981" r="11"/>
		<circle fill="#FFFFFF" cx="1270" cy="349.814" r="11"/>
		<circle fill="#FFFFFF" cx="1270" cy="455.647" r="11"/>
		<circle fill="#FFFFFF" cx="1270" cy="561.481" r="11"/>
		<circle fill="#FFFFFF" cx="1270" cy="667.314" r="11"/>
	</g>
</g>
</svg>
