<?xml version="1.0" encoding="utf-8"?>
<!-- Generator: Adobe Illustrator 16.0.0, SVG Export Plug-In . SVG Version: 6.00 Build 0)  -->
<!DOCTYPE svg PUBLIC "-//W3C//DTD SVG 1.1//EN" "http://www.w3.org/Graphics/SVG/1.1/DTD/svg11.dtd">
<svg version="1.1" id="Layer_1" xmlns="http://www.w3.org/2000/svg" xmlns:xlink="http://www.w3.org/1999/xlink" x="0px" y="0px"
	 width="1300px" height="600px" viewBox="0 0 1300 600" enable-background="new 0 0 1300 600" xml:space="preserve">
<rect fill="#F7931E" width="1300" height="600"/>
<g>
	<rect opacity="0.1" fill="#FFFFFF" width="1300" height="12"/>
	<rect x="0" y="30.947" opacity="0.1" fill="#FFFFFF" width="1300" height="12"/>
	<rect y="61.895" opacity="0.1" fill="#FFFFFF" width="1300" height="12"/>
	<rect y="92.842" opacity="0.1" fill="#FFFFFF" width="1300" height="12"/>
	<rect y="123.79" opacity="0.1" fill="#FFFFFF" width="1300" height="12"/>
	<rect y="154.736" opacity="0.1" fill="#FFFFFF" width="1300" height="12"/>
	<rect y="185.685" opacity="0.1" fill="#FFFFFF" width="1300" height="12"/>
	<rect y="216.632" opacity="0.1" fill="#FFFFFF" width="1300" height="12"/>
	<rect y="247.579" opacity="0.1" fill="#FFFFFF" width="1300" height="12"/>
	<rect y="278.526" opacity="0.1" fill="#FFFFFF" width="1300" height="12"/>
	<rect y="309.474" opacity="0.1" fill="#FFFFFF" width="1300" height="12"/>
	<rect y="340.421" opacity="0.1" fill="#FFFFFF" width="1300" height="12.001"/>
	<rect y="371.368" opacity="0.1" fill="#FFFFFF" width="1300" height="12.001"/>
	<rect y="402.316" opacity="0.1" fill="#FFFFFF" width="1300" height="12"/>
	<rect y="433.264" opacity="0.1" fill="#FFFFFF" width="1300" height="12"/>
	<rect y="464.211" opacity="0.1" fill="#FFFFFF" width="1300" height="12"/>
	<rect y="495.158" opacity="0.1" fill="#FFFFFF" width="1300" height="12"/>
	<rect y="526.105" opacity="0.1" fill="#FFFFFF" width="1300" height="12"/>
	<rect y="557.053" opacity="0.1" fill="#FFFFFF" width="1300" height="12"/>
	<rect y="588" opacity="0.1" fill="#FFFFFF" width="1300" height="12"/>
</g>
</svg>
