<?xml version="1.0" encoding="utf-8"?>
<!-- Generator: Adobe Illustrator 16.0.0, SVG Export Plug-In . SVG Version: 6.00 Build 0)  -->
<!DOCTYPE svg PUBLIC "-//W3C//DTD SVG 1.1//EN" "http://www.w3.org/Graphics/SVG/1.1/DTD/svg11.dtd">
<svg version="1.1" id="Layer_1" xmlns="http://www.w3.org/2000/svg" xmlns:xlink="http://www.w3.org/1999/xlink" x="0px" y="0px"
	 width="800px" height="500px" viewBox="0 0 800 500" enable-background="new 0 0 800 500" xml:space="preserve">
<g>
	<rect y="0.629" fill="#FFFFFF" width="800" height="500"/>
</g>
<g opacity="0.9">
	<g>
		<rect y="0.629" fill="#C0E4E2" width="10.999" height="500"/>
		<rect x="23.909" y="0.629" fill="#C0E4E2" width="10.999" height="500"/>
		<rect x="47.817" y="0.628" fill="#C0E4E2" width="10.999" height="500"/>
		<rect x="71.728" y="0.629" fill="#C0E4E2" width="10.998" height="500"/>
		<rect x="95.637" y="0.629" fill="#C0E4E2" width="10.999" height="500"/>
		<rect x="119.545" y="0.629" fill="#C0E4E2" width="10.999" height="500"/>
		<rect x="143.454" y="0.629" fill="#C0E4E2" width="10.999" height="500"/>
		<rect x="167.364" y="0.629" fill="#C0E4E2" width="10.999" height="500"/>
		<rect x="191.273" y="0.629" fill="#C0E4E2" width="10.999" height="500"/>
		<rect x="215.182" y="0.629" fill="#C0E4E2" width="10.999" height="500"/>
		<rect x="239.091" y="0.629" fill="#C0E4E2" width="10.999" height="500"/>
		<rect x="263" y="0.629" fill="#C0E4E2" width="10.999" height="500"/>
		<rect x="286.91" y="0.629" fill="#C0E4E2" width="10.999" height="500"/>
		<rect x="310.819" y="0.629" fill="#C0E4E2" width="10.998" height="500"/>
		<rect x="334.728" y="0.628" fill="#C0E4E2" width="10.998" height="500"/>
		<rect x="358.637" y="0.629" fill="#C0E4E2" width="10.999" height="500"/>
		<rect x="382.546" y="0.629" fill="#C0E4E2" width="10.999" height="500"/>
		<rect x="406.455" y="0.629" fill="#C0E4E2" width="10.998" height="500"/>
		<rect x="430.364" y="0.629" fill="#C0E4E2" width="10.999" height="500"/>
		<rect x="454.273" y="0.629" fill="#C0E4E2" width="10.998" height="500"/>
		<rect x="478.183" y="0.629" fill="#C0E4E2" width="10.998" height="500"/>
		<rect x="502.092" y="0.629" fill="#C0E4E2" width="10.998" height="500"/>
		<rect x="526.001" y="0.629" fill="#C0E4E2" width="10.999" height="500"/>
		<rect x="549.91" y="0.629" fill="#C0E4E2" width="10.998" height="500"/>
		<rect x="573.819" y="0.629" fill="#C0E4E2" width="10.998" height="500"/>
		<rect x="597.729" y="0.629" fill="#C0E4E2" width="10.998" height="500"/>
		<rect x="621.638" y="0.629" fill="#C0E4E2" width="10.998" height="500"/>
		<rect x="645.547" y="0.629" fill="#C0E4E2" width="10.998" height="500"/>
		<rect x="669.456" y="0.629" fill="#C0E4E2" width="10.998" height="500"/>
		<rect x="693.365" y="0.629" fill="#C0E4E2" width="10.998" height="500"/>
		<rect x="717.274" y="0.629" fill="#C0E4E2" width="10.998" height="500"/>
		<rect x="741.184" y="0.629" fill="#C0E4E2" width="10.998" height="500"/>
		<rect x="765.093" y="0.629" fill="#C0E4E2" width="10.998" height="500"/>
		<rect x="789.002" y="0.629" fill="#C0E4E2" width="10.998" height="500"/>
	</g>
</g>
</svg>
