<?xml version="1.0" encoding="utf-8"?>
<!-- Generator: Adobe Illustrator 16.0.0, SVG Export Plug-In . SVG Version: 6.00 Build 0)  -->
<!DOCTYPE svg PUBLIC "-//W3C//DTD SVG 1.1//EN" "http://www.w3.org/Graphics/SVG/1.1/DTD/svg11.dtd">
<svg version="1.1" id="Layer_1" xmlns="http://www.w3.org/2000/svg" xmlns:xlink="http://www.w3.org/1999/xlink" x="0px" y="0px"
	 width="1300px" height="700px" viewBox="0 0 1300 700" enable-background="new 0 0 1300 700" xml:space="preserve">
<g>
	<g>
		<g>
			<rect y="-0.014" fill="#FFDBDA" width="1300" height="700"/>
		</g>
	</g>
</g>
<g opacity="0.6">
	<g>
		<polygon fill="#FFFFFF" points="44.028,21.478 48.61,35.578 63.436,35.578 51.441,44.293 56.023,58.393 44.028,49.679 
			32.034,58.393 36.615,44.293 24.621,35.578 39.447,35.578 		"/>
		<polygon fill="#FFFFFF" points="44.028,99.302 48.61,113.402 63.436,113.402 51.441,122.117 56.023,136.217 44.028,127.502 
			32.034,136.217 36.615,122.117 24.621,113.402 39.447,113.402 		"/>
		<polygon fill="#FFFFFF" points="44.028,177.125 48.61,191.226 63.436,191.226 51.441,199.94 56.023,214.041 44.028,205.326 
			32.034,214.041 36.615,199.94 24.621,191.226 39.447,191.226 		"/>
		<polygon fill="#FFFFFF" points="44.028,254.949 48.61,269.049 63.436,269.049 51.441,277.764 56.022,291.864 44.028,283.149 
			32.034,291.864 36.615,277.764 24.621,269.049 39.447,269.049 		"/>
		<polygon fill="#FFFFFF" points="44.028,332.772 48.61,346.873 63.436,346.873 51.441,355.588 56.023,369.688 44.028,360.973 
			32.034,369.688 36.615,355.588 24.621,346.873 39.447,346.873 		"/>
		<polygon fill="#FFFFFF" points="44.028,410.596 48.61,424.696 63.436,424.696 51.441,433.411 56.022,447.512 44.028,438.797 
			32.034,447.512 36.615,433.411 24.621,424.696 39.447,424.696 		"/>
		<polygon fill="#FFFFFF" points="44.028,488.419 48.61,502.52 63.436,502.52 51.441,511.234 56.023,525.335 44.028,516.62 
			32.034,525.335 36.615,511.234 24.621,502.52 39.447,502.52 		"/>
		<polygon fill="#FFFFFF" points="44.028,566.243 48.61,580.344 63.436,580.344 51.441,589.059 56.023,603.158 44.028,594.444 
			32.034,603.158 36.615,589.059 24.621,580.344 39.447,580.344 		"/>
		<polygon fill="#FFFFFF" points="44.028,644.066 48.61,658.167 63.436,658.167 51.441,666.882 56.023,680.982 44.028,672.268 
			32.034,680.982 36.615,666.882 24.621,658.167 39.447,658.167 		"/>
	</g>
	<g>
		<polygon fill="#FFFFFF" points="111.59,62.478 116.171,76.578 130.998,76.578 119.003,85.293 123.585,99.393 111.59,90.679 
			99.595,99.393 104.177,85.293 92.183,76.578 107.009,76.578 		"/>
		<polygon fill="#FFFFFF" points="111.59,140.302 116.171,154.402 130.998,154.402 119.003,163.117 123.585,177.217 111.59,168.502 
			99.595,177.217 104.177,163.117 92.183,154.402 107.009,154.402 		"/>
		<polygon fill="#FFFFFF" points="111.59,218.125 116.171,232.226 130.998,232.226 119.003,240.94 123.585,255.041 111.59,246.326 
			99.595,255.041 104.177,240.94 92.183,232.226 107.009,232.226 		"/>
		<polygon fill="#FFFFFF" points="111.59,295.949 116.172,310.049 130.998,310.049 119.003,318.764 123.584,332.864 111.59,324.149 
			99.595,332.864 104.177,318.764 92.183,310.049 107.009,310.049 		"/>
		<polygon fill="#FFFFFF" points="111.59,373.772 116.171,387.873 130.998,387.873 119.003,396.588 123.585,410.688 111.59,401.973 
			99.595,410.688 104.177,396.588 92.183,387.873 107.009,387.873 		"/>
		<polygon fill="#FFFFFF" points="111.59,451.596 116.172,465.696 130.998,465.696 119.003,474.411 123.584,488.512 111.59,479.797 
			99.595,488.512 104.177,474.411 92.183,465.696 107.009,465.696 		"/>
		<polygon fill="#FFFFFF" points="111.59,529.419 116.171,543.52 130.998,543.52 119.003,552.234 123.585,566.335 111.59,557.62 
			99.595,566.335 104.177,552.234 92.183,543.52 107.009,543.52 		"/>
		<polygon fill="#FFFFFF" points="111.59,607.243 116.171,621.344 130.998,621.344 119.003,630.059 123.585,644.158 111.59,635.444 
			99.595,644.158 104.177,630.059 92.183,621.344 107.009,621.344 		"/>
	</g>
	<g>
		<polygon fill="#FFFFFF" points="179.152,21.478 183.733,35.578 198.559,35.578 186.565,44.293 191.146,58.393 179.152,49.679 
			167.157,58.393 171.739,44.293 159.745,35.578 174.57,35.578 		"/>
		<polygon fill="#FFFFFF" points="179.152,99.302 183.733,113.402 198.559,113.402 186.565,122.117 191.146,136.217 
			179.152,127.502 167.157,136.217 171.739,122.117 159.745,113.402 174.57,113.402 		"/>
		<polygon fill="#FFFFFF" points="179.152,177.125 183.733,191.226 198.559,191.226 186.565,199.94 191.146,214.041 
			179.152,205.326 167.157,214.041 171.739,199.94 159.745,191.226 174.57,191.226 		"/>
		<polygon fill="#FFFFFF" points="179.152,254.949 183.733,269.049 198.559,269.049 186.565,277.764 191.146,291.864 
			179.152,283.149 167.157,291.864 171.739,277.764 159.745,269.049 174.57,269.049 		"/>
		<polygon fill="#FFFFFF" points="179.152,332.772 183.733,346.872 198.559,346.872 186.565,355.588 191.146,369.688 
			179.152,360.973 167.157,369.688 171.739,355.588 159.745,346.872 174.57,346.872 		"/>
		<polygon fill="#FFFFFF" points="179.152,410.596 183.733,424.696 198.559,424.696 186.565,433.411 191.146,447.512 
			179.152,438.797 167.157,447.512 171.739,433.411 159.745,424.696 174.57,424.696 		"/>
		<polygon fill="#FFFFFF" points="179.152,488.419 183.733,502.52 198.559,502.52 186.565,511.234 191.146,525.335 179.152,516.62 
			167.157,525.335 171.739,511.234 159.745,502.52 174.57,502.52 		"/>
		<polygon fill="#FFFFFF" points="179.152,566.243 183.733,580.344 198.559,580.344 186.565,589.059 191.146,603.158 
			179.152,594.444 167.157,603.158 171.739,589.059 159.745,580.344 174.57,580.344 		"/>
		<polygon fill="#FFFFFF" points="179.152,644.066 183.733,658.167 198.559,658.167 186.565,666.882 191.146,680.982 
			179.152,672.268 167.157,680.982 171.739,666.882 159.745,658.167 174.57,658.167 		"/>
	</g>
	<g>
		<polygon fill="#FFFFFF" points="246.713,62.478 251.295,76.578 266.12,76.578 254.126,85.293 258.708,99.393 246.713,90.678 
			234.719,99.393 239.3,85.293 227.306,76.578 242.132,76.578 		"/>
		<polygon fill="#FFFFFF" points="246.713,140.301 251.295,154.401 266.12,154.401 254.126,163.117 258.708,177.217 
			246.713,168.502 234.719,177.217 239.3,163.117 227.306,154.401 242.132,154.401 		"/>
		<polygon fill="#FFFFFF" points="246.713,218.125 251.295,232.226 266.12,232.226 254.126,240.94 258.708,255.04 246.713,246.326 
			234.719,255.04 239.3,240.94 227.306,232.226 242.132,232.226 		"/>
		<polygon fill="#FFFFFF" points="246.713,295.949 251.295,310.049 266.12,310.049 254.126,318.763 258.708,332.864 
			246.713,324.149 234.719,332.864 239.3,318.763 227.306,310.049 242.132,310.049 		"/>
		<polygon fill="#FFFFFF" points="246.713,373.772 251.295,387.872 266.12,387.872 254.126,396.588 258.708,410.688 
			246.713,401.973 234.719,410.688 239.3,396.588 227.306,387.872 242.132,387.872 		"/>
		<polygon fill="#FFFFFF" points="246.713,451.596 251.295,465.696 266.12,465.696 254.126,474.411 258.708,488.512 
			246.713,479.797 234.719,488.512 239.3,474.411 227.306,465.696 242.132,465.696 		"/>
		<polygon fill="#FFFFFF" points="246.713,529.419 251.295,543.52 266.12,543.52 254.126,552.234 258.708,566.335 246.713,557.62 
			234.719,566.335 239.3,552.234 227.306,543.52 242.132,543.52 		"/>
		<polygon fill="#FFFFFF" points="246.713,607.243 251.295,621.344 266.12,621.344 254.126,630.059 258.708,644.158 
			246.713,635.444 234.719,644.158 239.3,630.059 227.306,621.344 242.132,621.344 		"/>
	</g>
	<g>
		<polygon fill="#FFFFFF" points="314.275,21.478 318.857,35.578 333.683,35.578 321.688,44.293 326.27,58.393 314.275,49.679 
			302.281,58.393 306.863,44.293 294.868,35.578 309.694,35.578 		"/>
		<polygon fill="#FFFFFF" points="314.275,99.302 318.857,113.402 333.683,113.402 321.688,122.117 326.27,136.217 314.275,127.502 
			302.281,136.217 306.863,122.117 294.868,113.402 309.694,113.402 		"/>
		<polygon fill="#FFFFFF" points="314.275,177.125 318.857,191.226 333.683,191.226 321.688,199.94 326.27,214.041 314.275,205.325 
			302.281,214.041 306.863,199.94 294.868,191.226 309.694,191.226 		"/>
		<polygon fill="#FFFFFF" points="314.275,254.948 318.857,269.049 333.683,269.049 321.688,277.764 326.27,291.864 
			314.275,283.149 302.281,291.864 306.863,277.764 294.868,269.049 309.694,269.049 		"/>
		<polygon fill="#FFFFFF" points="314.275,332.772 318.857,346.873 333.683,346.873 321.688,355.588 326.27,369.688 
			314.275,360.973 302.281,369.688 306.863,355.588 294.868,346.873 309.694,346.873 		"/>
		<polygon fill="#FFFFFF" points="314.275,410.596 318.857,424.696 333.683,424.696 321.688,433.411 326.27,447.512 
			314.275,438.797 302.281,447.512 306.863,433.411 294.868,424.696 309.694,424.696 		"/>
		<polygon fill="#FFFFFF" points="314.275,488.419 318.857,502.52 333.683,502.52 321.688,511.234 326.27,525.335 314.275,516.62 
			302.281,525.335 306.863,511.234 294.868,502.52 309.694,502.52 		"/>
		<polygon fill="#FFFFFF" points="314.275,566.243 318.857,580.344 333.683,580.344 321.688,589.059 326.27,603.158 
			314.275,594.444 302.281,603.158 306.863,589.059 294.868,580.344 309.694,580.344 		"/>
		<polygon fill="#FFFFFF" points="314.275,644.066 318.857,658.167 333.683,658.167 321.688,666.882 326.27,680.982 
			314.275,672.268 302.281,680.982 306.863,666.882 294.868,658.167 309.694,658.167 		"/>
	</g>
	<g>
		<polygon fill="#FFFFFF" points="381.837,62.479 386.419,76.578 401.245,76.578 389.251,85.293 393.832,99.393 381.837,90.679 
			369.843,99.393 374.425,85.293 362.43,76.578 377.256,76.578 		"/>
		<polygon fill="#FFFFFF" points="381.837,140.302 386.419,154.402 401.245,154.402 389.251,163.117 393.832,177.217 
			381.837,168.502 369.843,177.217 374.425,163.117 362.43,154.402 377.256,154.402 		"/>
		<polygon fill="#FFFFFF" points="381.837,218.125 386.419,232.226 401.245,232.226 389.251,240.941 393.832,255.041 
			381.837,246.326 369.843,255.041 374.425,240.941 362.43,232.226 377.256,232.226 		"/>
		<polygon fill="#FFFFFF" points="381.837,295.949 386.419,310.049 401.245,310.049 389.251,318.764 393.831,332.864 
			381.837,324.149 369.843,332.864 374.425,318.764 362.43,310.049 377.256,310.049 		"/>
		<polygon fill="#FFFFFF" points="381.837,373.772 386.419,387.873 401.245,387.873 389.251,396.588 393.832,410.688 
			381.837,401.973 369.843,410.688 374.425,396.588 362.43,387.873 377.256,387.873 		"/>
		<polygon fill="#FFFFFF" points="381.837,451.596 386.419,465.697 401.245,465.697 389.251,474.411 393.831,488.512 
			381.837,479.797 369.843,488.512 374.425,474.411 362.43,465.697 377.256,465.697 		"/>
		<polygon fill="#FFFFFF" points="381.837,529.42 386.419,543.52 401.245,543.52 389.251,552.234 393.832,566.335 381.837,557.62 
			369.843,566.335 374.425,552.234 362.43,543.52 377.256,543.52 		"/>
		<polygon fill="#FFFFFF" points="381.837,607.243 386.419,621.344 401.245,621.344 389.251,630.059 393.832,644.158 
			381.837,635.444 369.843,644.158 374.425,630.059 362.43,621.344 377.256,621.344 		"/>
	</g>
	<g>
		<polygon fill="#FFFFFF" points="449.399,21.478 453.98,35.578 468.807,35.578 456.813,44.293 461.394,58.394 449.399,49.679 
			437.404,58.394 441.986,44.293 429.992,35.578 444.817,35.578 		"/>
		<polygon fill="#FFFFFF" points="449.399,99.302 453.98,113.402 468.807,113.402 456.813,122.117 461.394,136.217 449.399,127.502 
			437.404,136.217 441.986,122.117 429.992,113.402 444.817,113.402 		"/>
		<polygon fill="#FFFFFF" points="449.399,177.125 453.98,191.226 468.807,191.226 456.813,199.94 461.394,214.04 449.399,205.326 
			437.404,214.04 441.986,199.94 429.992,191.226 444.817,191.226 		"/>
		<polygon fill="#FFFFFF" points="449.399,254.949 453.981,269.049 468.807,269.049 456.813,277.764 461.393,291.864 
			449.399,283.149 437.404,291.864 441.986,277.764 429.992,269.049 444.817,269.049 		"/>
		<polygon fill="#FFFFFF" points="449.399,332.772 453.98,346.872 468.807,346.872 456.813,355.588 461.394,369.688 
			449.399,360.973 437.404,369.688 441.986,355.588 429.992,346.872 444.817,346.872 		"/>
		<polygon fill="#FFFFFF" points="449.399,410.596 453.981,424.696 468.807,424.696 456.813,433.411 461.393,447.512 
			449.399,438.797 437.404,447.512 441.986,433.411 429.992,424.696 444.817,424.696 		"/>
		<polygon fill="#FFFFFF" points="449.399,488.419 453.98,502.52 468.807,502.52 456.813,511.234 461.394,525.335 449.399,516.62 
			437.404,525.335 441.986,511.234 429.992,502.52 444.817,502.52 		"/>
		<polygon fill="#FFFFFF" points="449.399,566.243 453.98,580.344 468.807,580.344 456.813,589.059 461.394,603.158 
			449.399,594.444 437.404,603.158 441.986,589.059 429.992,580.344 444.817,580.344 		"/>
		<polygon fill="#FFFFFF" points="449.399,644.066 453.98,658.167 468.807,658.167 456.813,666.882 461.394,680.982 
			449.399,672.268 437.404,680.982 441.986,666.882 429.992,658.167 444.817,658.167 		"/>
	</g>
	<g>
		<polygon fill="#FFFFFF" points="516.96,62.478 521.542,76.578 536.368,76.578 524.374,85.293 528.955,99.393 516.96,90.678 
			504.966,99.393 509.548,85.293 497.554,76.578 512.379,76.578 		"/>
		<polygon fill="#FFFFFF" points="516.96,140.301 521.542,154.401 536.368,154.401 524.374,163.117 528.955,177.217 516.96,168.501 
			504.966,177.217 509.548,163.117 497.554,154.401 512.379,154.401 		"/>
		<polygon fill="#FFFFFF" points="516.96,218.125 521.542,232.226 536.368,232.226 524.374,240.94 528.955,255.04 516.96,246.325 
			504.966,255.04 509.548,240.94 497.554,232.226 512.379,232.226 		"/>
		<polygon fill="#FFFFFF" points="516.96,295.948 521.542,310.048 536.368,310.048 524.374,318.763 528.955,332.864 516.96,324.149 
			504.966,332.864 509.548,318.763 497.554,310.048 512.379,310.048 		"/>
		<polygon fill="#FFFFFF" points="516.96,373.772 521.542,387.872 536.368,387.872 524.374,396.588 528.955,410.688 516.96,401.973 
			504.966,410.688 509.548,396.588 497.554,387.872 512.379,387.872 		"/>
		<polygon fill="#FFFFFF" points="516.96,451.596 521.542,465.696 536.368,465.696 524.374,474.411 528.955,488.512 516.96,479.797 
			504.966,488.512 509.548,474.411 497.554,465.696 512.379,465.696 		"/>
		<polygon fill="#FFFFFF" points="516.96,529.418 521.542,543.52 536.368,543.52 524.374,552.234 528.955,566.335 516.96,557.62 
			504.966,566.335 509.548,552.234 497.554,543.52 512.379,543.52 		"/>
		<polygon fill="#FFFFFF" points="516.96,607.243 521.542,621.344 536.368,621.344 524.374,630.059 528.955,644.158 516.96,635.444 
			504.966,644.158 509.548,630.059 497.554,621.344 512.379,621.344 		"/>
	</g>
	<g>
		<polygon fill="#FFFFFF" points="584.522,21.478 589.104,35.578 603.93,35.578 591.936,44.293 596.518,58.393 584.522,49.679 
			572.528,58.393 577.109,44.293 565.116,35.578 579.941,35.578 		"/>
		<polygon fill="#FFFFFF" points="584.522,99.302 589.104,113.402 603.93,113.402 591.936,122.116 596.518,136.217 584.522,127.502 
			572.528,136.217 577.109,122.116 565.116,113.402 579.941,113.402 		"/>
		<polygon fill="#FFFFFF" points="584.522,177.125 589.104,191.226 603.93,191.226 591.936,199.94 596.518,214.04 584.522,205.326 
			572.528,214.04 577.109,199.94 565.116,191.226 579.941,191.226 		"/>
		<polygon fill="#FFFFFF" points="584.522,254.949 589.104,269.049 603.93,269.049 591.936,277.764 596.517,291.864 
			584.522,283.149 572.528,291.864 577.109,277.764 565.116,269.049 579.941,269.049 		"/>
		<polygon fill="#FFFFFF" points="584.522,332.772 589.104,346.873 603.93,346.873 591.936,355.588 596.518,369.688 
			584.522,360.973 572.528,369.688 577.109,355.588 565.116,346.873 579.941,346.873 		"/>
		<polygon fill="#FFFFFF" points="584.522,410.596 589.104,424.696 603.93,424.696 591.936,433.411 596.517,447.512 
			584.522,438.797 572.528,447.512 577.109,433.411 565.116,424.696 579.941,424.696 		"/>
		<polygon fill="#FFFFFF" points="584.522,488.419 589.104,502.52 603.93,502.52 591.936,511.234 596.518,525.335 584.522,516.62 
			572.528,525.335 577.109,511.234 565.116,502.52 579.941,502.52 		"/>
		<polygon fill="#FFFFFF" points="584.522,566.243 589.104,580.344 603.93,580.344 591.936,589.059 596.518,603.158 
			584.522,594.444 572.528,603.158 577.109,589.059 565.116,580.344 579.941,580.344 		"/>
		<polygon fill="#FFFFFF" points="584.522,644.066 589.104,658.167 603.93,658.167 591.936,666.882 596.518,680.982 
			584.522,672.268 572.528,680.982 577.109,666.882 565.116,658.167 579.941,658.167 		"/>
	</g>
	<g>
		<polygon fill="#FFFFFF" points="652.084,62.479 656.666,76.578 671.492,76.578 659.498,85.293 664.079,99.394 652.084,90.679 
			640.09,99.394 644.672,85.293 632.678,76.578 647.503,76.578 		"/>
		<polygon fill="#FFFFFF" points="652.084,140.302 656.666,154.402 671.492,154.402 659.498,163.117 664.079,177.217 
			652.084,168.502 640.09,177.217 644.672,163.117 632.678,154.402 647.503,154.402 		"/>
		<polygon fill="#FFFFFF" points="652.084,218.125 656.666,232.226 671.492,232.226 659.498,240.94 664.079,255.041 
			652.084,246.326 640.09,255.041 644.672,240.94 632.678,232.226 647.503,232.226 		"/>
		<polygon fill="#FFFFFF" points="652.084,295.949 656.666,310.049 671.492,310.049 659.498,318.764 664.078,332.864 
			652.084,324.149 640.09,332.864 644.672,318.764 632.678,310.049 647.503,310.049 		"/>
		<polygon fill="#FFFFFF" points="652.084,373.772 656.666,387.873 671.492,387.873 659.498,396.588 664.079,410.688 
			652.084,401.973 640.09,410.688 644.672,396.588 632.678,387.873 647.503,387.873 		"/>
		<polygon fill="#FFFFFF" points="652.084,451.596 656.666,465.696 671.492,465.696 659.498,474.411 664.078,488.512 
			652.084,479.797 640.09,488.512 644.672,474.411 632.678,465.696 647.503,465.696 		"/>
		<polygon fill="#FFFFFF" points="652.084,529.419 656.666,543.52 671.492,543.52 659.498,552.234 664.079,566.335 652.084,557.62 
			640.09,566.335 644.672,552.234 632.678,543.52 647.503,543.52 		"/>
		<polygon fill="#FFFFFF" points="652.084,607.243 656.666,621.344 671.492,621.344 659.498,630.059 664.079,644.158 
			652.084,635.444 640.09,644.158 644.672,630.059 632.678,621.344 647.503,621.344 		"/>
	</g>
	<g>
		<polygon fill="#FFFFFF" points="719.646,21.478 724.229,35.578 739.054,35.578 727.06,44.293 731.641,58.393 719.646,49.679 
			707.652,58.393 712.233,44.293 700.239,35.578 715.064,35.578 		"/>
		<polygon fill="#FFFFFF" points="719.646,99.302 724.229,113.402 739.054,113.402 727.06,122.117 731.641,136.217 719.646,127.502 
			707.652,136.217 712.233,122.117 700.239,113.402 715.064,113.402 		"/>
		<polygon fill="#FFFFFF" points="719.646,177.125 724.229,191.226 739.054,191.226 727.06,199.94 731.641,214.041 719.646,205.326 
			707.652,214.041 712.233,199.94 700.239,191.226 715.064,191.226 		"/>
		<polygon fill="#FFFFFF" points="719.646,254.949 724.229,269.049 739.054,269.049 727.06,277.764 731.641,291.864 
			719.646,283.149 707.652,291.864 712.233,277.764 700.239,269.049 715.064,269.049 		"/>
		<polygon fill="#FFFFFF" points="719.646,332.772 724.229,346.873 739.054,346.873 727.06,355.588 731.641,369.688 
			719.646,360.973 707.652,369.688 712.233,355.588 700.239,346.873 715.064,346.873 		"/>
		<polygon fill="#FFFFFF" points="719.646,410.596 724.229,424.696 739.054,424.696 727.06,433.411 731.641,447.512 
			719.646,438.797 707.652,447.512 712.233,433.411 700.239,424.696 715.064,424.696 		"/>
		<polygon fill="#FFFFFF" points="719.646,488.419 724.229,502.52 739.054,502.52 727.06,511.234 731.641,525.335 719.646,516.62 
			707.652,525.335 712.233,511.234 700.239,502.52 715.064,502.52 		"/>
		<polygon fill="#FFFFFF" points="719.646,566.243 724.229,580.344 739.054,580.344 727.06,589.059 731.641,603.158 
			719.646,594.444 707.652,603.158 712.233,589.059 700.239,580.344 715.064,580.344 		"/>
		<polygon fill="#FFFFFF" points="719.646,644.066 724.229,658.167 739.054,658.167 727.06,666.882 731.641,680.982 
			719.646,672.268 707.652,680.982 712.233,666.882 700.239,658.167 715.064,658.167 		"/>
	</g>
	<g>
		<polygon fill="#FFFFFF" points="787.208,62.478 791.79,76.578 806.615,76.578 794.621,85.293 799.203,99.393 787.208,90.679 
			775.214,99.393 779.795,85.293 767.801,76.578 782.627,76.578 		"/>
		<polygon fill="#FFFFFF" points="787.208,140.302 791.79,154.402 806.615,154.402 794.621,163.117 799.203,177.217 
			787.208,168.502 775.214,177.217 779.795,163.117 767.801,154.402 782.627,154.402 		"/>
		<polygon fill="#FFFFFF" points="787.208,218.125 791.79,232.226 806.615,232.226 794.621,240.94 799.203,255.04 787.208,246.325 
			775.214,255.04 779.795,240.94 767.801,232.226 782.627,232.226 		"/>
		<polygon fill="#FFFFFF" points="787.208,295.948 791.79,310.049 806.615,310.049 794.621,318.764 799.202,332.864 
			787.208,324.149 775.214,332.864 779.795,318.764 767.801,310.049 782.627,310.049 		"/>
		<polygon fill="#FFFFFF" points="787.208,373.772 791.79,387.873 806.615,387.873 794.621,396.588 799.203,410.688 
			787.208,401.973 775.214,410.688 779.795,396.588 767.801,387.873 782.627,387.873 		"/>
		<polygon fill="#FFFFFF" points="787.208,451.596 791.79,465.696 806.615,465.696 794.621,474.411 799.202,488.512 
			787.208,479.797 775.214,488.512 779.795,474.411 767.801,465.696 782.627,465.696 		"/>
		<polygon fill="#FFFFFF" points="787.208,529.419 791.79,543.52 806.615,543.52 794.621,552.234 799.203,566.335 787.208,557.62 
			775.214,566.335 779.795,552.234 767.801,543.52 782.627,543.52 		"/>
		<polygon fill="#FFFFFF" points="787.208,607.243 791.79,621.344 806.615,621.344 794.621,630.059 799.203,644.158 
			787.208,635.444 775.214,644.158 779.795,630.059 767.801,621.344 782.627,621.344 		"/>
	</g>
	<g>
		<polygon fill="#FFFFFF" points="854.77,21.478 859.352,35.578 874.178,35.578 862.184,44.293 866.765,58.393 854.77,49.679 
			842.775,58.393 847.357,44.293 835.363,35.578 850.188,35.578 		"/>
		<polygon fill="#FFFFFF" points="854.77,99.302 859.352,113.402 874.178,113.402 862.184,122.117 866.765,136.217 854.77,127.502 
			842.775,136.217 847.357,122.117 835.363,113.402 850.188,113.402 		"/>
		<polygon fill="#FFFFFF" points="854.77,177.125 859.352,191.226 874.178,191.226 862.184,199.94 866.765,214.04 854.77,205.326 
			842.775,214.04 847.357,199.94 835.363,191.226 850.188,191.226 		"/>
		<polygon fill="#FFFFFF" points="854.77,254.949 859.352,269.049 874.178,269.049 862.184,277.764 866.764,291.864 854.77,283.149 
			842.775,291.864 847.357,277.764 835.363,269.049 850.188,269.049 		"/>
		<polygon fill="#FFFFFF" points="854.77,332.772 859.352,346.872 874.178,346.872 862.184,355.588 866.765,369.688 854.77,360.973 
			842.775,369.688 847.357,355.588 835.363,346.872 850.188,346.872 		"/>
		<polygon fill="#FFFFFF" points="854.77,410.596 859.352,424.696 874.178,424.696 862.184,433.411 866.764,447.512 854.77,438.797 
			842.775,447.512 847.357,433.411 835.363,424.696 850.188,424.696 		"/>
		<polygon fill="#FFFFFF" points="854.77,488.419 859.352,502.52 874.178,502.52 862.184,511.234 866.765,525.335 854.77,516.62 
			842.775,525.335 847.357,511.234 835.363,502.52 850.188,502.52 		"/>
		<polygon fill="#FFFFFF" points="854.77,566.243 859.352,580.344 874.178,580.344 862.184,589.059 866.765,603.158 854.77,594.444 
			842.775,603.158 847.357,589.059 835.363,580.344 850.188,580.344 		"/>
		<polygon fill="#FFFFFF" points="854.77,644.066 859.352,658.167 874.178,658.167 862.184,666.882 866.765,680.982 854.77,672.268 
			842.775,680.982 847.357,666.882 835.363,658.167 850.188,658.167 		"/>
	</g>
	<g>
		<polygon fill="#FFFFFF" points="922.332,62.478 926.913,76.578 941.739,76.578 929.745,85.293 934.326,99.393 922.332,90.679 
			910.337,99.393 914.919,85.293 902.925,76.578 917.75,76.578 		"/>
		<polygon fill="#FFFFFF" points="922.332,140.302 926.913,154.402 941.739,154.402 929.745,163.117 934.326,177.217 
			922.332,168.502 910.337,177.217 914.919,163.117 902.925,154.402 917.75,154.402 		"/>
		<polygon fill="#FFFFFF" points="922.332,218.125 926.913,232.226 941.739,232.226 929.745,240.94 934.326,255.04 922.332,246.326 
			910.337,255.04 914.919,240.94 902.925,232.226 917.75,232.226 		"/>
		<polygon fill="#FFFFFF" points="922.332,295.949 926.913,310.049 941.739,310.049 929.745,318.764 934.326,332.864 
			922.332,324.149 910.337,332.864 914.919,318.764 902.925,310.049 917.75,310.049 		"/>
		<polygon fill="#FFFFFF" points="922.332,373.772 926.913,387.873 941.739,387.873 929.745,396.588 934.326,410.688 
			922.332,401.973 910.337,410.688 914.919,396.588 902.925,387.873 917.75,387.873 		"/>
		<polygon fill="#FFFFFF" points="922.332,451.596 926.913,465.696 941.739,465.696 929.745,474.411 934.326,488.512 
			922.332,479.797 910.337,488.512 914.919,474.411 902.925,465.696 917.75,465.696 		"/>
		<polygon fill="#FFFFFF" points="922.332,529.419 926.913,543.52 941.739,543.52 929.745,552.234 934.326,566.335 922.332,557.62 
			910.337,566.335 914.919,552.234 902.925,543.52 917.75,543.52 		"/>
		<polygon fill="#FFFFFF" points="922.332,607.243 926.913,621.344 941.739,621.344 929.745,630.059 934.326,644.158 
			922.332,635.444 910.337,644.158 914.919,630.059 902.925,621.344 917.75,621.344 		"/>
	</g>
	<g>
		<polygon fill="#FFFFFF" points="989.894,21.478 994.475,35.578 1009.302,35.578 997.307,44.293 1001.889,58.393 989.894,49.679 
			977.898,58.393 982.48,44.293 970.487,35.578 985.313,35.578 		"/>
		<polygon fill="#FFFFFF" points="989.894,99.302 994.475,113.402 1009.302,113.402 997.307,122.117 1001.889,136.217 
			989.894,127.502 977.898,136.217 982.48,122.117 970.487,113.402 985.313,113.402 		"/>
		<polygon fill="#FFFFFF" points="989.894,177.125 994.475,191.226 1009.302,191.226 997.307,199.94 1001.889,214.041 
			989.894,205.325 977.898,214.041 982.48,199.94 970.487,191.226 985.313,191.226 		"/>
		<polygon fill="#FFFFFF" points="989.894,254.948 994.476,269.049 1009.302,269.049 997.307,277.764 1001.888,291.864 
			989.894,283.149 977.898,291.864 982.48,277.764 970.487,269.049 985.313,269.049 		"/>
		<polygon fill="#FFFFFF" points="989.894,332.772 994.475,346.873 1009.302,346.873 997.307,355.588 1001.889,369.688 
			989.894,360.973 977.898,369.688 982.48,355.588 970.487,346.873 985.313,346.873 		"/>
		<polygon fill="#FFFFFF" points="989.894,410.596 994.476,424.696 1009.302,424.696 997.307,433.411 1001.888,447.512 
			989.894,438.797 977.898,447.512 982.48,433.411 970.487,424.696 985.313,424.696 		"/>
		<polygon fill="#FFFFFF" points="989.894,488.419 994.475,502.52 1009.302,502.52 997.307,511.234 1001.889,525.335 
			989.894,516.62 977.898,525.335 982.48,511.234 970.487,502.52 985.313,502.52 		"/>
		<polygon fill="#FFFFFF" points="989.894,566.243 994.475,580.344 1009.302,580.344 997.307,589.059 1001.889,603.158 
			989.894,594.444 977.898,603.158 982.48,589.059 970.487,580.344 985.313,580.344 		"/>
		<polygon fill="#FFFFFF" points="989.894,644.066 994.475,658.167 1009.302,658.167 997.307,666.882 1001.889,680.982 
			989.894,672.268 977.898,680.982 982.48,666.882 970.487,658.167 985.313,658.167 		"/>
	</g>
	<g>
		<polygon fill="#FFFFFF" points="1057.455,62.478 1062.037,76.578 1076.863,76.578 1064.869,85.293 1069.45,99.393 
			1057.455,90.679 1045.461,99.393 1050.043,85.293 1038.049,76.578 1052.874,76.578 		"/>
		<polygon fill="#FFFFFF" points="1057.455,140.302 1062.037,154.402 1076.863,154.402 1064.869,163.117 1069.45,177.217 
			1057.455,168.502 1045.461,177.217 1050.043,163.117 1038.049,154.402 1052.874,154.402 		"/>
		<polygon fill="#FFFFFF" points="1057.455,218.125 1062.037,232.226 1076.863,232.226 1064.869,240.94 1069.45,255.041 
			1057.455,246.326 1045.461,255.041 1050.043,240.94 1038.049,232.226 1052.874,232.226 		"/>
		<polygon fill="#FFFFFF" points="1057.455,295.949 1062.037,310.049 1076.863,310.049 1064.869,318.764 1069.449,332.864 
			1057.455,324.149 1045.461,332.864 1050.043,318.764 1038.049,310.049 1052.874,310.049 		"/>
		<polygon fill="#FFFFFF" points="1057.455,373.772 1062.037,387.873 1076.863,387.873 1064.869,396.588 1069.45,410.688 
			1057.455,401.973 1045.461,410.688 1050.043,396.588 1038.049,387.873 1052.874,387.873 		"/>
		<polygon fill="#FFFFFF" points="1057.455,451.596 1062.037,465.696 1076.863,465.696 1064.869,474.411 1069.449,488.512 
			1057.455,479.797 1045.461,488.512 1050.043,474.411 1038.049,465.696 1052.874,465.696 		"/>
		<polygon fill="#FFFFFF" points="1057.455,529.419 1062.037,543.52 1076.863,543.52 1064.869,552.234 1069.45,566.335 
			1057.455,557.62 1045.461,566.335 1050.043,552.234 1038.049,543.52 1052.874,543.52 		"/>
		<polygon fill="#FFFFFF" points="1057.455,607.243 1062.037,621.344 1076.863,621.344 1064.869,630.059 1069.45,644.158 
			1057.455,635.444 1045.461,644.158 1050.043,630.059 1038.049,621.344 1052.874,621.344 		"/>
	</g>
	<g>
		<polygon fill="#FFFFFF" points="1125.017,21.478 1129.599,35.578 1144.425,35.578 1132.431,44.293 1137.012,58.393 
			1125.017,49.679 1113.022,58.393 1117.604,44.293 1105.61,35.578 1120.436,35.578 		"/>
		<polygon fill="#FFFFFF" points="1125.017,99.302 1129.599,113.402 1144.425,113.402 1132.431,122.117 1137.012,136.217 
			1125.017,127.502 1113.022,136.217 1117.604,122.117 1105.61,113.402 1120.436,113.402 		"/>
		<polygon fill="#FFFFFF" points="1125.017,177.125 1129.599,191.226 1144.425,191.226 1132.431,199.94 1137.012,214.041 
			1125.017,205.326 1113.022,214.041 1117.604,199.94 1105.61,191.226 1120.436,191.226 		"/>
		<polygon fill="#FFFFFF" points="1125.017,254.949 1129.599,269.049 1144.425,269.049 1132.431,277.764 1137.011,291.864 
			1125.017,283.149 1113.022,291.864 1117.604,277.764 1105.61,269.049 1120.436,269.049 		"/>
		<polygon fill="#FFFFFF" points="1125.017,332.772 1129.599,346.872 1144.425,346.872 1132.431,355.588 1137.012,369.688 
			1125.017,360.973 1113.022,369.688 1117.604,355.588 1105.61,346.872 1120.436,346.872 		"/>
		<polygon fill="#FFFFFF" points="1125.017,410.596 1129.599,424.696 1144.425,424.696 1132.431,433.411 1137.011,447.512 
			1125.017,438.797 1113.022,447.512 1117.604,433.411 1105.61,424.696 1120.436,424.696 		"/>
		<polygon fill="#FFFFFF" points="1125.017,488.419 1129.599,502.52 1144.425,502.52 1132.431,511.234 1137.012,525.335 
			1125.017,516.62 1113.022,525.335 1117.604,511.234 1105.61,502.52 1120.436,502.52 		"/>
		<polygon fill="#FFFFFF" points="1125.017,566.243 1129.599,580.344 1144.425,580.344 1132.431,589.059 1137.012,603.158 
			1125.017,594.444 1113.022,603.158 1117.604,589.059 1105.61,580.344 1120.436,580.344 		"/>
		<polygon fill="#FFFFFF" points="1125.017,644.066 1129.599,658.167 1144.425,658.167 1132.431,666.882 1137.012,680.982 
			1125.017,672.268 1113.022,680.982 1117.604,666.882 1105.61,658.167 1120.436,658.167 		"/>
	</g>
	<g>
		<polygon fill="#FFFFFF" points="1192.578,62.478 1197.161,76.578 1211.987,76.578 1199.992,85.293 1204.574,99.393 
			1192.578,90.679 1180.585,99.393 1185.167,85.293 1173.172,76.578 1187.998,76.578 		"/>
		<polygon fill="#FFFFFF" points="1192.578,140.302 1197.161,154.402 1211.987,154.402 1199.992,163.117 1204.574,177.217 
			1192.578,168.502 1180.585,177.217 1185.167,163.117 1173.172,154.402 1187.998,154.402 		"/>
		<polygon fill="#FFFFFF" points="1192.578,218.125 1197.161,232.226 1211.987,232.226 1199.992,240.94 1204.574,255.041 
			1192.578,246.326 1180.585,255.041 1185.167,240.94 1173.172,232.226 1187.998,232.226 		"/>
		<polygon fill="#FFFFFF" points="1192.578,295.949 1197.161,310.049 1211.987,310.049 1199.992,318.764 1204.573,332.864 
			1192.578,324.149 1180.585,332.864 1185.167,318.764 1173.172,310.049 1187.998,310.049 		"/>
		<polygon fill="#FFFFFF" points="1192.578,373.772 1197.161,387.873 1211.987,387.873 1199.992,396.588 1204.574,410.688 
			1192.578,401.973 1180.585,410.688 1185.167,396.588 1173.172,387.873 1187.998,387.873 		"/>
		<polygon fill="#FFFFFF" points="1192.578,451.596 1197.161,465.696 1211.987,465.696 1199.992,474.411 1204.573,488.512 
			1192.578,479.797 1180.585,488.512 1185.167,474.411 1173.172,465.696 1187.998,465.696 		"/>
		<polygon fill="#FFFFFF" points="1192.578,529.419 1197.161,543.52 1211.987,543.52 1199.992,552.234 1204.574,566.335 
			1192.578,557.62 1180.585,566.335 1185.167,552.234 1173.172,543.52 1187.998,543.52 		"/>
		<polygon fill="#FFFFFF" points="1192.578,607.243 1197.161,621.344 1211.987,621.344 1199.992,630.059 1204.574,644.158 
			1192.578,635.444 1180.585,644.158 1185.167,630.059 1173.172,621.344 1187.998,621.344 		"/>
	</g>
	<g>
		<polygon fill="#FFFFFF" points="1260.141,21.478 1264.723,35.578 1279.549,35.578 1267.555,44.293 1272.136,58.393 
			1260.141,49.679 1248.146,58.393 1252.729,44.293 1240.734,35.578 1255.56,35.578 		"/>
		<polygon fill="#FFFFFF" points="1260.141,99.302 1264.723,113.402 1279.549,113.402 1267.555,122.117 1272.136,136.217 
			1260.141,127.502 1248.146,136.217 1252.729,122.117 1240.734,113.402 1255.56,113.402 		"/>
		<polygon fill="#FFFFFF" points="1260.141,177.125 1264.723,191.226 1279.549,191.226 1267.555,199.94 1272.136,214.041 
			1260.141,205.326 1248.146,214.041 1252.729,199.94 1240.734,191.226 1255.56,191.226 		"/>
		<polygon fill="#FFFFFF" points="1260.141,254.949 1264.723,269.049 1279.549,269.049 1267.555,277.764 1272.135,291.864 
			1260.141,283.149 1248.146,291.864 1252.729,277.764 1240.734,269.049 1255.56,269.049 		"/>
		<polygon fill="#FFFFFF" points="1260.141,332.772 1264.723,346.873 1279.549,346.873 1267.555,355.588 1272.136,369.688 
			1260.141,360.973 1248.146,369.688 1252.729,355.588 1240.734,346.873 1255.56,346.873 		"/>
		<polygon fill="#FFFFFF" points="1260.141,410.596 1264.723,424.696 1279.549,424.696 1267.555,433.411 1272.135,447.512 
			1260.141,438.797 1248.146,447.512 1252.729,433.411 1240.734,424.696 1255.56,424.696 		"/>
		<polygon fill="#FFFFFF" points="1260.141,488.419 1264.723,502.52 1279.549,502.52 1267.555,511.234 1272.136,525.335 
			1260.141,516.62 1248.146,525.335 1252.729,511.234 1240.734,502.52 1255.56,502.52 		"/>
		<polygon fill="#FFFFFF" points="1260.141,566.243 1264.723,580.344 1279.549,580.344 1267.555,589.059 1272.136,603.158 
			1260.141,594.444 1248.146,603.158 1252.729,589.059 1240.734,580.344 1255.56,580.344 		"/>
		<polygon fill="#FFFFFF" points="1260.141,644.066 1264.723,658.167 1279.549,658.167 1267.555,666.882 1272.136,680.982 
			1260.141,672.268 1248.146,680.982 1252.729,666.882 1240.734,658.167 1255.56,658.167 		"/>
	</g>
</g>
</svg>
